#!OML:ASF F:\VICON\USERDATA\INSTALL\rory3\rory3.ASF
:FULLY-SPECIFIED
:DEGREES
2885
root -0.381081 17.282 -0.809722 18.928 6.11991 -3.21541
lowerback 12.4099 -0.075737 -2.65696
upperback 5.98678 -0.418117 -2.61799
thorax -0.687716 -0.214094 -1.17059
lowerneck 3.99447 -7.31201 -21.7463
upperneck 14.9354 -12.0164 17.3958
head 6.19859 -6.30235 8.66792
rclavicle -7.95139e-016 4.77083e-015
rhumerus -26.7289 9.22926 -80.5645
rradius 142.853
rwrist -49.9888
rhand 44.7299 19.3
rfingers 7.12502
rthumb 66.1803 14.2193
lclavicle -7.95139e-016 4.77083e-015
lhumerus -19.6562 -28.5287 87.4568
lradius 140.294
lwrist 63.525
lhand 41.2311 33.077
lfingers 7.12502
lthumb 63.4075 42.7006
rfemur -28.1228 2.92256 22.7422
rtibia 23.8766
rfoot -15.1077 -9.05379
rtoes -19.6387
lfemur -34.0038 -11.2978 -8.53239
ltibia 30.9339
lfoot -15.0476 6.88372
ltoes -21.6934
2886
root -0.392966 17.2975 -0.798031 19.026 6.44915 -3.38016
lowerback 12.4431 0.013522 -2.36317
upperback 5.75927 -0.285499 -2.928
thorax -0.946777 -0.136831 -1.67527
lowerneck 3.8656 -7.41283 -21.378
upperneck 14.7634 -12.0938 17.2477
head 6.15049 -6.31892 8.53482
rclavicle 3.18055e-015 6.36111e-015
rhumerus -27.2564 8.2649 -80.5924
rradius 142.988
rwrist -49.854
rhand 44.0839 19.4019
rfingers 7.12502
rthumb 65.6815 13.4021
lclavicle 3.18055e-015 6.36111e-015
lhumerus -19.8647 -28.8869 87.2311
lradius 140.352
lwrist 63.1944
lhand 40.9363 32.2694
lfingers 7.12502
lthumb 63.1666 42.2307
rfemur -27.8281 3.11533 22.9455
rtibia 23.2063
rfoot -14.7202 -9.35568
rtoes -19.6877
lfemur -34.0121 -11.7648 -8.07649
ltibia 30.5856
lfoot -14.7689 7.11064
ltoes -21.9971
2887
root -0.405327 17.3134 -0.785605 19.1004 6.75931 -3.51318
lowerback 12.5173 0.0610917 -2.25051
upperback 5.53555 -0.227561 -3.15079
thorax -1.22119 -0.102199 -1.9789
lowerneck 3.41968 -7.48765 -21.0337
upperneck 14.8713 -12.0706 16.8644
head 6.2126 -6.28413 8.32345
rclavicle -4.77083e-015 4.77083e-015
rhumerus -27.6985 7.66252 -80.5455
rradius 143.117
rwrist -49.7369
rhand 43.7515 19.5559
rfingers 7.12502
rthumb 65.4223 13.0982
lclavicle -4.77083e-015 4.77083e-015
lhumerus -20.1253 -28.9536 87.1232
lradius 140.397
lwrist 63.2814
lhand 40.4361 32.1074
lfingers 7.12502
lthumb 62.7557 42.6274
rfemur -27.5221 3.3521 23.1022
rtibia 22.5872
rfoot -14.2866 -9.73876
rtoes -20.125
lfemur -34.0167 -12.0991 -7.70263
ltibia 30.2972
lfoot -14.6227 7.16345
ltoes -21.7092
2888
root -0.414836 17.3274 -0.77618 19.206 7.095 -3.62869
lowerback 12.5959 0.00502182 -2.30363
upperback 5.35139 -0.319619 -3.22869
thorax -1.45782 -0.146608 -2.01821
lowerneck 2.80864 -7.48687 -21.0864
upperneck 14.9967 -11.939 16.65
head 6.32344 -6.2054 8.24442
rclavicle 9.54166e-015 4.77083e-015
rhumerus -27.8263 7.53074 -80.3098
rradius 143.127
rwrist -49.7373
rhand 43.6643 19.7162
rfingers 7.12502
rthumb 65.3541 13.1401
lclavicle 9.54166e-015 4.77083e-015
lhumerus -20.2302 -28.583 87.1598
lradius 140.377
lwrist 63.42
lhand 40.171 32.3366
lfingers 7.12502
lthumb 62.5368 43.1456
rfemur -27.294 3.52795 23.2383
rtibia 22.0285
rfoot -13.9293 -10.0392
rtoes -20.3484
lfemur -34.0924 -12.4103 -7.35383
ltibia 30.0516
lfoot -14.4258 7.22436
ltoes -21.7237
2889
root -0.419256 17.34 -0.763275 19.2291 7.31785 -3.78416
lowerback 12.6563 0.0160319 -2.2589
upperback 5.23086 -0.31038 -3.33425
thorax -1.61704 -0.139769 -2.15531
lowerneck 2.52564 -7.47709 -21.2945
upperneck 14.8592 -11.8734 16.7424
head 6.33555 -6.16796 8.30429
rclavicle -2.38542e-015 -2.70347e-014
rhumerus -27.9892 7.44514 -80.0702
rradius 143.149
rwrist -49.7674
rhand 43.6508 19.8835
rfingers 7.12502
rthumb 65.3435 13.2891
lclavicle -2.38542e-015 -2.70347e-014
lhumerus -20.3013 -28.3329 87.2357
lradius 140.469
lwrist 63.4414
lhand 40.0184 32.5574
lfingers 7.12502
lthumb 62.4104 43.5307
rfemur -27.0303 3.63923 23.4238
rtibia 21.575
rfoot -13.7567 -10.1794
rtoes -19.8676
lfemur -34.051 -12.7395 -7.01544
ltibia 29.8617
lfoot -14.352 7.41821
ltoes -21.7114
2890
root -0.417273 17.3459 -0.748356 19.1865 7.44851 -3.83872
lowerback 12.6644 0.0936074 -2.14502
upperback 5.22714 -0.200897 -3.53398
thorax -1.6237 -0.082019 -2.44384
lowerneck 2.28077 -7.49173 -21.4294
upperneck 14.6348 -11.8551 16.9351
head 6.32399 -6.14618 8.38338
rclavicle 2.3059e-014 -1.43125e-014
rhumerus -28.1384 7.30391 -79.918
rradius 143.163
rwrist -49.7306
rhand 43.745 19.9966
rfingers 7.12502
rthumb 65.4173 13.5301
lclavicle 2.3059e-014 -1.43125e-014
lhumerus -20.2817 -28.1889 87.2385
lradius 140.614
lwrist 63.8334
lhand 39.9336 32.8877
lfingers 7.12502
lthumb 62.3401 43.9516
rfemur -26.7559 3.61224 23.5007
rtibia 21.2804
rfoot -13.7166 -10.1852
rtoes -18.9504
lfemur -33.9167 -13.0741 -6.85931
ltibia 29.727
lfoot -14.3468 7.69379
ltoes -22.0102
2891
root -0.414911 17.345 -0.744519 19.2554 7.71856 -3.9107
lowerback 12.6113 0.122122 -1.89866
upperback 5.24896 -0.136223 -3.72823
thorax -1.57122 -0.0448653 -2.79516
lowerneck 1.86517 -7.51939 -21.5633
upperneck 14.5951 -11.8425 17.1552
head 6.40308 -6.11944 8.46896
rclavicle -1.03368e-014 -2.8625e-014
rhumerus -28.1636 7.27819 -79.8656
rradius 143.146
rwrist -49.5719
rhand 43.8222 20.04
rfingers 7.12502
rthumb 65.4776 13.6789
lclavicle -1.03368e-014 -2.8625e-014
lhumerus -19.9547 -28.2915 87.1241
lradius 140.595
lwrist 64.2615
lhand 39.909 33.1334
lfingers 7.12502
lthumb 62.3197 44.2234
rfemur -26.7279 3.48231 23.6192
rtibia 21.1379
rfoot -13.7175 -10.2148
rtoes -18.6313
lfemur -34.0667 -13.3695 -6.63118
ltibia 29.7066
lfoot -14.3932 7.80271
ltoes -21.929
2892
root -0.419986 17.3399 -0.747694 19.3792 8.07942 -3.93263
lowerback 12.5666 0.157481 -1.77971
upperback 5.23178 -0.0785483 -3.90212
thorax -1.56298 -0.0127031 -3.05262
lowerneck 1.72425 -7.54168 -21.6757
upperneck 14.4685 -11.8577 17.3294
head 6.4089 -6.11831 8.54093
rclavicle 1.74931e-014 4.13472e-014
rhumerus -28.2319 7.34964 -79.832
rradius 143.062
rwrist -49.3636
rhand 43.824 20.0863
rfingers 7.12502
rthumb 65.479 13.7276
lclavicle 1.74931e-014 4.13472e-014
lhumerus -19.5893 -28.6598 87.0069
lradius 140.481
lwrist 64.5004
lhand 40.0122 33.2126
lfingers 7.12502
lthumb 62.4053 44.1925
rfemur -26.9045 3.33335 23.7143
rtibia 21.2013
rfoot -13.8479 -10.2613
rtoes -18.487
lfemur -34.3977 -13.6031 -6.42151
ltibia 29.8042
lfoot -14.5561 7.73862
ltoes -21.3135
2893
root -0.429599 17.327 -0.753772 19.3817 8.46365 -4.09211
lowerback 12.7021 0.156804 -1.74453
upperback 5.20577 -0.0814272 -3.90582
thorax -1.66356 -0.0134552 -3.07737
lowerneck 1.72428 -7.50135 -21.8682
upperneck 14.245 -11.7676 17.2867
head 6.33067 -6.08421 8.56207
rclavicle 1.74931e-014 -9.54166e-015
rhumerus -28.2255 7.73377 -79.7097
rradius 142.921
rwrist -49.2187
rhand 43.9164 20.0881
rfingers 7.12502
rthumb 65.5511 13.8563
lclavicle 1.74931e-014 -9.54166e-015
lhumerus -19.4502 -28.7995 87.0672
lradius 140.404
lwrist 64.7096
lhand 40.0516 33.3072
lfingers 7.12502
lthumb 62.438 44.2449
rfemur -27.0718 3.16945 23.9919
rtibia 21.4516
rfoot -14.1467 -10.2516
rtoes -17.912
lfemur -34.6704 -13.6194 -6.14781
ltibia 30.0179
lfoot -14.606 7.50836
ltoes -21.276
